<svg width="900" height="600" viewBox="0 0 900 600" fill="none" xmlns="http://www.w3.org/2000/svg">
  <rect width="900" height="600" rx="48" fill="#05070A"/>
  <rect x="48" y="48" width="804" height="504" rx="36" fill="url(#bg)" stroke="url(#outline)" stroke-width="2"/>
  <g filter="url(#blurLight)">
    <circle cx="230" cy="180" r="150" fill="#38BDF8" fill-opacity="0.35"/>
    <circle cx="660" cy="360" r="180" fill="#22C55E" fill-opacity="0.28"/>
  </g>
  <rect x="140" y="136" width="620" height="330" rx="28" fill="#0B1320" fill-opacity="0.92"/>
  <rect x="190" y="210" width="520" height="12" rx="6" fill="#22C55E"/>
  <rect x="190" y="260" width="460" height="12" rx="6" fill="#38BDF8"/>
  <rect x="190" y="310" width="380" height="12" rx="6" fill="#A5F3FC" fill-opacity="0.7"/>
  <rect x="190" y="360" width="320" height="12" rx="6" fill="#22D3EE" fill-opacity="0.6"/>
  <rect x="190" y="410" width="280" height="12" rx="6" fill="#38BDF8" fill-opacity="0.5"/>
  <rect x="180" y="160" width="320" height="22" rx="11" fill="#38BDF8" fill-opacity="0.2"/>
  <rect x="520" y="160" width="200" height="22" rx="11" fill="#22C55E" fill-opacity="0.2"/>
  <path d="M240 450C320 420 410 420 490 450" stroke="url(#curve)" stroke-width="6" stroke-linecap="round"/>
  <path d="M540 450C600 420 660 420 720 450" stroke="url(#curve2)" stroke-width="6" stroke-linecap="round"/>
  <defs>
    <linearGradient id="bg" x1="48" y1="48" x2="852" y2="552" gradientUnits="userSpaceOnUse">
      <stop stop-color="#0B1F33"/>
      <stop offset="0.5" stop-color="#05070A"/>
      <stop offset="1" stop-color="#04201A"/>
    </linearGradient>
    <linearGradient id="outline" x1="48" y1="48" x2="852" y2="552" gradientUnits="userSpaceOnUse">
      <stop stop-color="#38BDF8" stop-opacity="0.8"/>
      <stop offset="1" stop-color="#22C55E" stop-opacity="0.8"/>
    </linearGradient>
    <linearGradient id="curve" x1="240" y1="450" x2="490" y2="450" gradientUnits="userSpaceOnUse">
      <stop stop-color="#38BDF8"/>
      <stop offset="1" stop-color="#A855F7"/>
    </linearGradient>
    <linearGradient id="curve2" x1="540" y1="450" x2="720" y2="450" gradientUnits="userSpaceOnUse">
      <stop stop-color="#22C55E"/>
      <stop offset="1" stop-color="#38BDF8"/>
    </linearGradient>
    <filter id="blurLight" x="0" y="-40" width="900" height="680" filterUnits="userSpaceOnUse" color-interpolation-filters="sRGB">
      <feFlood flood-opacity="0" result="BackgroundImageFix"/>
      <feBlend mode="normal" in="SourceGraphic" in2="BackgroundImageFix" result="shape"/>
      <feGaussianBlur stdDeviation="60" result="effect1_foregroundBlur"/>
    </filter>
  </defs>
</svg>

